<?xml version="1.0" standalone="no"?>
<!DOCTYPE svg PUBLIC "-//W3C//DTD SVG 20010904//EN"
 "http://www.w3.org/TR/2001/REC-SVG-20010904/DTD/svg10.dtd">
<svg version="1.0" xmlns="http://www.w3.org/2000/svg"
 width="250.000000pt" height="250.000000pt" viewBox="0 0 250.000000 250.000000"
 preserveAspectRatio="xMidYMid meet">
<metadata>
Created by potrace 1.14, written by Peter Selinger 2001-2017
</metadata>
<g transform="translate(0.000000,250.000000) scale(0.100000,-0.100000)"
fill="#000000" stroke="none">
<path d="M1965 2362 c-47 -3 -245 -35 -265 -42 -3 -1 -8 -2 -12 -1 -4 0 -20
-4 -35 -10 -15 -6 -38 -13 -49 -15 -12 -2 -73 -22 -135 -44 -63 -22 -118 -42
-124 -43 -5 -2 -24 -11 -41 -20 -17 -9 -34 -13 -38 -10 -3 4 -6 1 -6 -6 0 -7
-4 -9 -10 -6 -5 3 -10 1 -10 -4 0 -6 -3 -10 -7 -9 -12 3 -197 -92 -205 -106
-4 -6 -8 -8 -8 -3 0 7 -75 -38 -98 -60 -7 -7 -17 -13 -21 -13 -4 0 -17 -8 -29
-17 -11 -10 -30 -25 -42 -33 -12 -8 -28 -19 -34 -25 -6 -5 -31 -26 -56 -46
-25 -20 -57 -47 -71 -61 -14 -13 -38 -34 -54 -46 -15 -12 -25 -22 -22 -22 4 0
-4 -10 -16 -23 -12 -13 -25 -22 -29 -20 -5 2 -8 0 -8 -5 0 -5 -22 -32 -49 -61
-26 -28 -46 -51 -44 -51 2 0 -6 -11 -19 -25 -47 -50 -131 -165 -121 -165 4 0
3 -4 -3 -8 -10 -7 -78 -110 -80 -121 0 -3 -17 -41 -37 -83 -21 -42 -37 -83
-37 -92 0 -8 -4 -17 -9 -20 -5 -3 -19 -47 -32 -98 -32 -126 -34 -334 -4 -418
11 -30 24 -58 30 -62 5 -4 6 -8 2 -8 -11 0 44 -78 84 -119 88 -88 224 -150
399 -181 65 -12 325 -17 390 -7 89 13 245 55 307 83 17 8 34 14 38 14 20 0
279 129 283 141 2 5 12 9 23 9 10 0 19 5 19 10 0 6 6 10 14 10 8 0 16 4 18 8
2 4 21 19 42 32 53 32 136 102 221 186 198 197 295 366 295 518 0 81 -22 155
-60 197 -16 19 -30 37 -30 42 0 4 -7 7 -15 7 -8 0 -15 4 -15 9 0 11 -150 71
-177 71 -10 1 -29 7 -42 14 -19 10 -21 15 -10 22 8 5 20 9 28 11 8 1 17 6 20
10 3 5 31 22 61 37 84 43 169 103 228 159 28 28 52 55 52 59 0 7 41 73 60 95
6 7 10 16 10 20 0 5 7 30 16 56 12 36 15 69 10 125 -7 99 -8 102 -18 102 -4 0
-8 6 -8 13 0 8 -9 24 -19 36 -11 13 -21 26 -23 30 -7 16 -67 50 -113 65 -47
15 -173 24 -260 18z m-364 -202 c42 -12 91 -55 115 -102 20 -38 27 -162 12
-216 -5 -19 -11 -44 -14 -56 -2 -11 -24 -63 -50 -115 -75 -153 -201 -261 -361
-311 -24 -7 -43 -16 -43 -20 0 -4 18 -13 39 -20 102 -33 174 -124 202 -253 13
-63 17 -238 6 -292 -32 -161 -93 -275 -207 -385 -198 -191 -366 -210 -458 -50
-25 41 -62 151 -69 199 -14 96 -7 347 12 441 2 14 10 50 16 80 6 30 17 79 25
107 9 29 15 54 14 55 -5 16 138 369 154 380 6 4 7 8 2 8 -5 0 -4 6 1 13 6 6
25 39 43 72 18 33 60 99 92 148 173 258 321 358 469 317z"/>
</g>
</svg>
